<svg width="75" height="75" viewBox="0 0 75 75" fill="none" xmlns="http://www.w3.org/2000/svg">
<path d="M34.375 12.5V0H40.625V12.5H34.375ZM20.5469 16.9531L11.1719 7.57813L15.625 3.125L25 12.5L20.5469 16.9531ZM18.75 56.25H28.125C29.0104 56.25 29.7531 55.95 30.3531 55.35C30.9531 54.75 31.2521 54.0083 31.25 53.125C31.25 52.2396 30.95 51.4969 30.35 50.8969C29.75 50.2969 29.0083 49.9979 28.125 50H18.75V56.25ZM46.875 56.25H56.25V50H46.875C45.9896 50 45.2469 50.3 44.6469 50.9C44.0469 51.5 43.7479 52.2417 43.75 53.125C43.75 54.0104 44.05 54.7531 44.65 55.3531C45.25 55.9531 45.9917 56.2521 46.875 56.25ZM53.9844 35.1563L64.8437 24.375L61.5625 21.0938L53.9844 28.5156L50.9375 25.4688L47.6562 28.8281L53.9844 35.1563ZM56.25 43.75C51.9271 43.75 48.2417 42.226 45.1937 39.1781C42.1458 36.1302 40.6229 32.4458 40.625 28.125C40.625 23.8021 42.149 20.1167 45.1969 17.0688C48.2448 14.0208 51.9292 12.4979 56.25 12.5C60.5729 12.5 64.2583 14.024 67.3062 17.0719C70.3542 20.1198 71.8771 23.8042 71.875 28.125C71.875 32.4479 70.351 36.1333 67.3031 39.1813C64.2552 42.2292 60.5708 43.7521 56.25 43.75ZM12.5 71.875C11.6146 71.875 10.8719 71.575 10.2719 70.975C9.67187 70.375 9.37291 69.6333 9.375 68.75V43.75L15.9375 25C16.25 24.0625 16.8094 23.3073 17.6156 22.7344C18.4219 22.1615 19.3208 21.875 20.3125 21.875H28.125V15.625H38.3594C37.1094 17.3958 36.1323 19.3365 35.4281 21.4469C34.724 23.5573 34.3729 25.7833 34.375 28.125H21.4062L16.7969 40.625H38.3594C40.4427 43.5938 43.0469 45.8979 46.1719 47.5375C49.2969 49.1771 52.6562 49.9979 56.25 50C57.9167 50 59.5187 49.8302 61.0562 49.4906C62.5937 49.151 64.1167 48.6177 65.625 47.8906V68.75C65.625 69.6354 65.325 70.3781 64.725 70.9781C64.125 71.5781 63.3833 71.8771 62.5 71.875H59.375C58.4896 71.875 57.7469 71.575 57.1469 70.975C56.5469 70.375 56.2479 69.6333 56.25 68.75V65.625H18.75V68.75C18.75 69.6354 18.45 70.3781 17.85 70.9781C17.25 71.5781 16.5083 71.8771 15.625 71.875H12.5Z" fill="#FFFFF0"/>
</svg>
