<svg width="75" height="75" viewBox="0 0 75 75" fill="none" xmlns="http://www.w3.org/2000/svg">
<path d="M45.1875 49.625L49.625 45.1875L56.25 51.8438L62.875 45.1875L67.3125 49.625L60.6562 56.25L67.3125 62.875L62.875 67.3125L56.25 60.6562L49.625 67.3125L45.1875 62.875L51.8438 56.25L45.1875 49.625ZM35.9375 3.125L65.625 18.75V25H6.25V18.75L35.9375 3.125ZM50 31.25H59.375V37.75L56.25 37.5C54.0625 37.5 51.9688 37.875 50 38.5625V31.25ZM6.25 68.75V59.375H37.75C38.3438 62.9375 39.9688 66.1562 42.2812 68.75H6.25ZM31.25 31.25H40.625V45.875C39.1875 48.0312 38.1875 50.4688 37.75 53.125H31.25V31.25ZM12.5 31.25H21.875V53.125H12.5V31.25Z" fill="#FFFFF0"/>
</svg>
