<svg width="75" height="75" viewBox="0 0 75 75" fill="none" xmlns="http://www.w3.org/2000/svg">
<path d="M39.1406 50C41.1198 50 43.0604 49.5833 44.9625 48.75C46.8646 47.9167 48.5177 46.6667 49.9219 45C50.2865 44.5833 50.3646 44.1146 50.1562 43.5938C49.9479 43.0729 49.5833 42.7604 49.0625 42.6562C47.0833 42.3438 45.2083 41.601 43.4375 40.4281C41.6667 39.2552 40.2344 37.7062 39.1406 35.7812C38.099 33.9583 37.4865 31.9927 37.3031 29.8844C37.1198 27.776 37.3937 25.7312 38.125 23.75C38.3333 23.2292 38.2687 22.7604 37.9312 22.3438C37.5937 21.9271 37.1375 21.7708 36.5625 21.875C32.9688 22.5521 30.1302 24.2448 28.0469 26.9531C25.9635 29.6615 24.9219 32.6562 24.9219 35.9375C24.9219 39.8438 26.3156 43.1646 29.1031 45.9C31.8906 48.6354 35.2365 50.0021 39.1406 50ZM37.5 68.75C30.2604 66.9271 24.2833 62.7729 19.5688 56.2875C14.8542 49.8021 12.4979 42.6021 12.5 34.6875V15.625L37.5 6.25L62.5 15.625V34.6875C62.5 42.6042 60.1427 49.8052 55.4281 56.2906C50.7135 62.776 44.7375 66.9292 37.5 68.75ZM37.5 62.1875C42.9167 60.4688 47.3958 57.0312 50.9375 51.875C54.4792 46.7188 56.25 40.9896 56.25 34.6875V19.9219L37.5 12.8906L18.75 19.9219V34.6875C18.75 40.9896 20.5208 46.7188 24.0625 51.875C27.6042 57.0312 32.0833 60.4688 37.5 62.1875Z" fill="#FFFFF0"/>
</svg>
