<svg width="75" height="75" viewBox="0 0 75 75" fill="none" xmlns="http://www.w3.org/2000/svg">
<path d="M56.8066 23.1738C59.2013 23.1738 61.1426 21.2326 61.1426 18.8379C61.1426 16.4432 59.2013 14.502 56.8066 14.502C54.412 14.502 52.4707 16.4432 52.4707 18.8379C52.4707 21.2326 54.412 23.1738 56.8066 23.1738Z" fill="#FFFFF0"/>
<path d="M71.2793 37.2362L63.9258 33.8085L61.875 28.1835C61.0254 26.2206 59.2676 24.6972 57.041 24.3163L55.2832 24.0233C53.4375 23.7011 51.6797 24.1991 50.3027 25.2538L44.0625 29.619C43.6523 29.912 43.3594 30.3222 43.2715 30.8788V30.9081L41.7188 39.58C41.543 40.5761 42.2168 41.6014 43.2422 41.7479C44.2676 41.8944 45.2637 41.2499 45.4102 40.2245L46.8457 32.2557C46.8457 32.2557 50.5078 29.7362 50.5371 29.7362L48.1055 43.5936L46.377 53.7011L40.4883 62.0214C39.6387 63.2518 39.9316 64.9218 41.1621 65.7421C42.3926 66.5624 44.0625 66.2987 44.8828 65.0682L51.0645 56.2499C51.3281 55.9276 51.4453 55.5468 51.4746 55.1659L52.8516 47.2264L57.5391 53.9354L59.2969 63.955C59.5605 65.4198 60.9375 66.3866 62.4023 66.1229C63.8672 65.8593 64.834 64.4823 64.5703 63.0175L62.6953 52.412C62.6074 52.0018 62.4316 51.6503 62.2266 51.328L56.8359 43.5057L58.9746 31.2596L60.6445 35.8007C60.8203 36.2694 61.1426 36.6796 61.6406 36.8847H61.6699L69.6973 40.6054C70.6641 41.0155 71.748 40.6346 72.2168 39.6679C72.6562 38.7889 72.2461 37.6757 71.2793 37.2362Z" fill="#FFFFF0"/>
<path d="M3.86718 39.6679C4.33593 40.6346 5.41992 41.0155 6.38671 40.6054L14.4141 36.8847H14.4434C14.9414 36.6796 15.293 36.2694 15.4395 35.8007L17.1094 31.2596L19.248 43.5057L13.8281 51.3866C13.623 51.7089 13.4473 52.0604 13.3594 52.4706L11.4844 63.0761C11.2207 64.5409 12.1875 65.9179 13.6523 66.1815C15.1172 66.4452 16.4941 65.4784 16.7578 64.0136L18.5156 53.994L23.2031 47.285L24.5801 55.2245C24.6094 55.6054 24.7559 55.9862 24.9902 56.3085L31.1719 65.1268C32.0215 66.3573 33.6914 66.6503 34.8926 65.8007C36.123 64.9511 36.416 63.2811 35.5664 62.08L29.6777 53.7597L27.9492 43.6522L25.5176 29.7948C25.5469 29.7948 29.209 32.3143 29.209 32.3143L30.6445 40.2831C30.8203 41.2792 31.8164 41.953 32.8125 41.8065C33.8086 41.6307 34.4824 40.6347 34.3359 39.6386L32.7832 30.9667V30.9374C32.6953 30.3807 32.4023 29.9706 31.9922 29.6776L25.8105 25.2538C24.4336 24.1991 22.6758 23.7011 20.8301 24.0233L19.0723 24.3163C16.8457 24.6972 15.0879 26.1913 14.2383 28.1835L12.1875 33.8085L4.83398 37.2362C3.86718 37.6757 3.45703 38.7889 3.86718 39.6679Z" fill="#FFFFF0"/>
<path d="M17.4023 22.7928C18.0762 22.9979 21.3574 23.2616 23.6719 19.16C24.5508 17.4608 24.5508 15.205 24.5508 15.205C24.5508 15.205 23.3789 16.2303 22.1484 16.1717C21.3281 16.1132 20.3027 15.4979 20.0976 15.3514C19.6289 15.0878 19.1308 14.8827 18.5156 14.7948C16.3183 14.5311 14.3555 16.0839 14.0625 18.2811C13.8574 20.4491 15.3808 22.4413 17.4023 22.7928Z" fill="#FFFFF0"/>
</svg>
