<svg width="75" height="75" viewBox="0 0 75 75" fill="none" xmlns="http://www.w3.org/2000/svg">
<path d="M24.7954 8.27813C30.1811 8.27813 34.5472 12.6442 34.5472 18.0299C34.5472 23.4155 30.1811 27.7816 24.7954 27.7816C19.4098 27.7816 15.0437 23.4155 15.0437 18.0299C15.0437 12.6442 19.4095 8.27813 24.7954 8.27813ZM9.08262 44.8274C9.08262 44.0953 9.55312 43.5987 10.3113 43.5987C11.0695 43.5987 11.54 44.0692 11.54 44.8274V72.0694H38.3376V44.8274C38.3376 44.0953 38.8081 43.5987 39.5663 43.5987C40.2984 43.5987 40.795 44.0692 40.795 44.8274V72.0694H49.3181V42.37C49.3181 35.6511 43.8278 30.1869 37.135 30.1869H34.6775L27.5142 41.3241L26.6514 32.9842L27.8279 30.1605H22.5469L23.7234 32.9842L22.8085 41.3763L15.6448 30.1869H12.769C6.0501 30.1869 0.585938 35.6772 0.585938 42.37V72.0697H9.10898V44.8277L9.08262 44.8274ZM62.0265 13.5158H63.581V11.5295C62.9517 11.7639 62.4088 12.4919 62.0265 13.5158ZM61.5082 17.1311H63.581V19.0682H61.7672C61.6192 18.4758 61.5328 17.8219 61.5082 17.1311ZM61.1628 19.8949C61.3726 20.5488 61.6564 21.1163 61.9896 21.573C61.1259 21.2153 60.3732 20.623 59.8181 19.8949H61.1628ZM61.7672 14.3426H63.581V16.3043H61.4959C61.5328 15.6135 61.6192 14.9473 61.7672 14.3426ZM62.0265 19.9072H63.581V21.8936C62.9517 21.6592 62.4088 20.9188 62.0265 19.9072ZM60.9284 19.0682H59.2998C59.0036 18.4761 58.8062 17.8219 58.7569 17.1311H60.6817C60.7063 17.8219 60.7925 18.4758 60.9284 19.0682ZM61.1505 13.5158H59.8304C60.3732 12.8001 61.1136 12.2326 61.9526 11.8749C61.6315 12.3313 61.3603 12.8868 61.1505 13.5158ZM60.6814 16.3043H58.7566C58.8185 15.6009 59.0033 14.9347 59.3118 14.3426H60.9281C60.7925 14.9473 60.7063 15.6135 60.6814 16.3043ZM72.3167 5.85381V2.92969L52.8346 5.26172V34.0594H74.4141V5.85381H72.3167ZM70.8237 5.85381H60.4597L70.8237 4.60752V5.85381ZM63.9882 23.0903C60.4594 23.0903 57.6094 20.2277 57.6094 16.7115C57.6094 13.1827 60.472 10.3327 63.9882 10.3327C67.517 10.3327 70.367 13.1953 70.367 16.7115C70.367 20.2277 67.517 23.078 63.9882 23.0903ZM70.367 26.4712V29.013H57.6217V26.4712H70.367ZM64.4077 19.9072H65.9748C65.5922 20.9314 65.037 21.6715 64.4077 21.8936V19.9072ZM66.8508 19.8949H68.1832C67.6157 20.6353 66.8754 21.215 66.0117 21.573C66.3448 21.1163 66.6287 20.5488 66.8508 19.8949ZM67.3072 17.1311H69.232C69.1702 17.8219 68.9854 18.4758 68.6892 19.0682H67.0605C67.1962 18.4758 67.2826 17.8219 67.3072 17.1311ZM66.2215 19.0682H64.4077V17.1311H66.4928C66.4559 17.8219 66.3694 18.4758 66.2215 19.0682ZM66.4928 16.3043H64.4077V14.3426H66.2215C66.3694 14.9473 66.4559 15.6135 66.4928 16.3043ZM67.0605 14.3426H68.6769C68.9854 14.935 69.1828 15.6012 69.232 16.3043H67.3072C67.2826 15.6135 67.2085 14.9473 67.0605 14.3426ZM66.8385 13.5281C66.6287 12.8988 66.3574 12.3437 66.0366 11.8872C66.8757 12.2449 67.6037 12.8127 68.1589 13.5281H66.8385ZM65.9748 13.5158H64.4077V11.5295C65.037 11.7639 65.5922 12.4919 65.9748 13.5158Z" fill="#FFFFF0"/>
</svg>
