<svg id="Layer_1" data-name="Layer 1" xmlns="http://www.w3.org/2000/svg" viewBox="0 0 422.39 529.26"><defs><style>.cls-1{fill:#fff;}</style></defs><path class="cls-1" d="M1001,1078.72a5.41,5.41,0,0,1-4.59-2.53l-21.95-34.76a5.41,5.41,0,0,1-.84-2.9V874.11H919.87a5.43,5.43,0,1,1,0-10.86h59.19a5.44,5.44,0,0,1,5.43,5.43V1037l16.35,25.89,15.13-25.8V868.68a5.43,5.43,0,0,1,10.86,0v169.85a5.44,5.44,0,0,1-.75,2.75L1005.69,1076a5.44,5.44,0,0,1-4.59,2.68Z" transform="translate(-788.81 -675.67)"/><path class="cls-1" d="M1000.62,1034.1a5.43,5.43,0,0,1-5.43-5.41l-.78-158.78a5.41,5.41,0,0,1,5.4-5.45h0a5.44,5.44,0,0,1,5.43,5.4l.78,158.78a5.44,5.44,0,0,1-5.41,5.46Z" transform="translate(-788.81 -675.67)"/><path class="cls-1" d="M919.76,957.09A43.9,43.9,0,0,1,888.6,944.2a5.42,5.42,0,0,1-1.24-5.77l27.33-71.68a5.43,5.43,0,0,1,10.15,0l27.32,71.68a5.41,5.41,0,0,1-1.23,5.77A43.91,43.91,0,0,1,919.76,957.09Zm-20.93-18.26a33.28,33.28,0,0,0,41.87,0l-20.94-54.91Z" transform="translate(-788.81 -675.67)"/><path class="cls-1" d="M999.06,1078.72H999a5.44,5.44,0,0,1-4.59-2.68L974,1041.28a5.44,5.44,0,0,1-.75-2.75V868.68a5.43,5.43,0,0,1,10.86,0v168.37l15.13,25.8,16.35-25.89V868.68a5.44,5.44,0,0,1,5.43-5.43h59.19a5.43,5.43,0,0,1,0,10.86h-53.76v164.42a5.41,5.41,0,0,1-.84,2.9l-21.95,34.76A5.41,5.41,0,0,1,999.06,1078.72Z" transform="translate(-788.81 -675.67)"/><path class="cls-1" d="M1080.94,958.3a43.94,43.94,0,0,1-31.16-12.89,5.44,5.44,0,0,1-1.24-5.78L1075.87,868a5.43,5.43,0,0,1,10.15,0l27.33,71.68a5.44,5.44,0,0,1-1.24,5.78A44,44,0,0,1,1080.94,958.3ZM1060,940a33.28,33.28,0,0,0,41.87,0l-20.94-54.9Z" transform="translate(-788.81 -675.67)"/><path class="cls-1" d="M1047.86,845.24h-96a5.43,5.43,0,1,1,0-10.86h96a5.43,5.43,0,1,1,0,10.86Z" transform="translate(-788.81 -675.67)"/><path class="cls-1" d="M1010.15,845.24H989.58a5.43,5.43,0,0,1-5.43-5.43V780.63a5.43,5.43,0,0,1,10.86,0v53.75h9.71V780.63a5.43,5.43,0,0,1,10.86,0v59.18A5.43,5.43,0,0,1,1010.15,845.24Z" transform="translate(-788.81 -675.67)"/><path class="cls-1" d="M999.87,789.79a20.23,20.23,0,1,1,20.22-20.22A20.24,20.24,0,0,1,999.87,789.79Zm0-29.59a9.37,9.37,0,1,0,9.36,9.37A9.38,9.38,0,0,0,999.87,760.2Z" transform="translate(-788.81 -675.67)"/><path class="cls-1" d="M999.77,1204.93h0a5.39,5.39,0,0,1-4.13-1.91L833.73,1013a178.26,178.26,0,0,1-31.32-51.72,209.62,209.62,0,0,1,24.17-194.35c39.41-58,102.56-91.26,173.19-91.26S1133.55,709,1173,767h0c39.83,57.06,49.14,129.38,24.91,193.49a178.42,178.42,0,0,1-31.36,51.78L1003.9,1203A5.42,5.42,0,0,1,999.77,1204.93Zm0-518.4c-67,0-126.85,31.55-164.25,86.56a198.82,198.82,0,0,0-23,184.3A167.55,167.55,0,0,0,842,1005.94l157.78,185.19,158.53-185.94a167.32,167.32,0,0,0,29.48-48.62c23-60.71,14.1-129.3-23.71-183.42l0-.06C1126.62,718.08,1066.75,686.53,999.77,686.53Z" transform="translate(-788.81 -675.67)"/></svg>