<svg width="75" height="75" viewBox="0 0 75 75" fill="none" xmlns="http://www.w3.org/2000/svg">
<path d="M37.5 9.375L6.25 37.5H15.625V62.5H31.25V43.75H43.75V47.2188L60.7188 30.25L37.5 9.375ZM65.75 34.8125C65.296 34.8234 64.8621 35.0014 64.5312 35.3125L61.4062 38.4375L67.8125 44.8438L70.9375 41.7188C71.2524 41.3975 71.4288 40.9655 71.4288 40.5156C71.4288 40.0657 71.2524 39.6338 70.9375 39.3125L66.9375 35.3125C66.625 35 66.1875 34.8125 65.75 34.8125ZM59.5625 40.25L40.625 59.1875V65.625H47.0625L65.9688 46.6562L59.5625 40.25Z" fill="#FFFFF0"/>
</svg>
