<svg width="75" height="75" viewBox="0 0 75 75" fill="none" xmlns="http://www.w3.org/2000/svg">
<path d="M3.66357 7.17773V13.916H15.0879V7.17773H3.66357ZM22.4121 7.17773V13.916H33.8379V7.17773H22.4121ZM41.1621 7.17773V13.916H52.5879V7.17773H41.1621ZM59.9121 7.17773V13.916H71.3379V7.17773H59.9121ZM8.0581 16.5527V25.9277H17.4316V32.666H20.0684V25.9277H29.4434V16.5527H26.8066V23.291H10.6948V16.5527H8.0581ZM45.5566 16.5527V25.9277H54.9316V32.666H57.5684V25.9277H66.9434V16.5527H64.3066V23.291H48.1934V16.5527H45.5566ZM13.0386 35.3027V42.041H24.4629V35.3027H13.0386ZM50.5371 35.3027V42.041H61.9629V35.3027H50.5371ZM17.4316 44.6777V51.709H36.1816V58.4473H38.8184V51.709H57.5684V44.6777H54.9316V49.0723H20.0684V44.6777H17.4316ZM31.7871 61.084V67.8223H43.2129V61.084H31.7871Z" fill="#FFFFF0"/>
</svg>
