<svg width="525" height="293" viewBox="0 0 525 293" fill="none" xmlns="http://www.w3.org/2000/svg">
<path d="M511.625 113.352L506.059 127.591L510.005 129.134L515.571 114.894L511.625 113.352Z" fill="#9FC131"/>
<path d="M163.952 78.4355L160.797 81.262L170.996 92.6505L174.152 89.824L163.952 78.4355Z" fill="#9230C2"/>
<path d="M210.715 129.409L198.478 138.574L201.018 141.965L213.255 132.8L210.715 129.409Z" fill="#9FC131"/>
<path d="M352.24 24.2307L349.337 27.3161L360.471 37.7935L363.374 34.7081L352.24 24.2307Z" fill="#9FC131"/>
<path d="M271.28 27.6377L263.66 40.8924L267.333 43.0039L274.953 29.7492L271.28 27.6377Z" fill="#9230C2"/>
<path d="M381.93 140.987L378.347 143.248L386.506 156.177L390.089 153.916L381.93 140.987Z" fill="#9230C2"/>
<path d="M215.795 203.946L212.005 205.839L218.837 219.516L222.627 217.622L215.795 203.946Z" fill="#0CBC8B"/>
<path d="M160.346 167.96L155.956 182.605L160.014 183.821L164.404 169.177L160.346 167.96Z" fill="#367CFF"/>
<path d="M425.557 213.594L412.86 222.109L415.219 225.628L427.917 217.113L425.557 213.594Z" fill="#367CFF"/>
<path d="M427.459 5.17198e-06L419.839 13.2543L423.512 15.3658L431.132 2.11146L427.459 5.17198e-06Z" fill="#9230C2"/>
<path d="M3.9459 108.435L0 109.977L5.56569 124.217L9.51159 122.674L3.9459 108.435Z" fill="#9230C2"/>
<path d="M413.556 90.8438L411.016 94.235L423.252 103.401L425.792 100.009L413.556 90.8438Z" fill="#9230C2"/>
<path d="M69.8406 28.3767L58.7063 38.8542L61.6096 41.9395L72.744 31.4621L69.8406 28.3767Z" fill="#9FC131"/>
<path d="M193.166 15.8998L189.493 18.0113L197.113 31.266L200.786 29.1545L193.166 15.8998Z" fill="#9FC131"/>
<path d="M43.3553 182.319L35.1963 195.248L38.7792 197.509L46.9381 184.58L43.3553 182.319Z" fill="#0CBC8B"/>
<path d="M7.2166 217.737L4.85681 221.257L17.5614 229.773L19.9212 226.252L7.2166 217.737Z" fill="#9FC131"/>
<path d="M497.369 48.8966L493.696 51.0081L501.315 64.2624L504.988 62.151L497.369 48.8966Z" fill="#9FC131"/>
<path d="M338.192 85.0178L327.992 96.4064L331.148 99.2329L341.348 87.8443L338.192 85.0178Z" fill="#9FC131"/>
<path d="M248.65 213.386L241.817 227.062L245.607 228.956L252.44 215.279L248.65 213.386Z" fill="#0CBC8B"/>
<path d="M304.101 177.401L300.043 178.618L304.433 193.262L308.491 192.046L304.101 177.401Z" fill="#367CFF"/>
<path d="M305.467 185.758L291.027 174.782C290.71 174.541 290.345 174.368 289.958 174.276C289.57 174.183 289.168 174.172 288.776 174.244C288.383 174.315 288.011 174.467 287.681 174.691C287.35 174.914 287.071 175.204 286.859 175.541C286.487 176.177 286.364 176.927 286.514 177.648C286.665 178.369 287.077 179.008 287.672 179.442L290.768 181.795L277.634 178.863C276.18 178.512 274.17 179.011 273.883 180.669C273.732 181.299 273.798 181.963 274.071 182.551C274.345 183.139 274.81 183.617 275.39 183.908C275.383 183.92 275.378 183.934 275.374 183.948C275.373 183.959 275.373 183.97 275.374 183.981L273.131 183.439C272.715 183.339 272.283 183.333 271.864 183.421C271.446 183.509 271.053 183.689 270.713 183.949C270.374 184.209 270.096 184.541 269.901 184.921C269.706 185.301 269.598 185.72 269.586 186.148C269.58 186.821 269.805 187.476 270.224 188.003C270.642 188.53 271.229 188.897 271.886 189.043L272.84 189.274C272.846 189.304 272.857 189.334 272.874 189.361C272.193 189.355 271.532 189.591 271.009 190.028C270.486 190.464 270.136 191.072 270.02 191.744C269.915 192.482 270.093 193.232 270.517 193.845C270.941 194.458 271.58 194.889 272.308 195.051L274.679 195.624C274.64 195.64 274.606 195.665 274.578 195.696C274.55 195.728 274.531 195.766 274.521 195.807C274.511 195.856 274.516 195.907 274.535 195.953C273.927 196.116 273.389 196.474 273.004 196.973C272.62 197.471 272.409 198.082 272.406 198.712C272.416 199.373 272.648 200.012 273.066 200.524C273.484 201.037 274.063 201.393 274.709 201.536L294.713 206.369C297.511 207.045 300.448 206.869 303.146 205.866C305.845 204.862 308.182 203.075 309.859 200.735C311.304 198.717 311.906 196.214 311.535 193.76C311.165 191.305 309.852 189.091 307.876 187.589L305.467 185.758Z" fill="#E98862"/>
<g opacity="0.2">
<path d="M288.376 186.874C288.359 186.941 288.317 186.999 288.258 187.036C288.199 187.072 288.128 187.084 288.061 187.069L275.573 184.262C275.539 184.254 275.507 184.24 275.479 184.22C275.45 184.2 275.426 184.174 275.408 184.145C275.389 184.116 275.376 184.083 275.371 184.048C275.365 184.014 275.366 183.979 275.373 183.945C275.381 183.911 275.395 183.879 275.415 183.851C275.435 183.822 275.461 183.798 275.49 183.779C275.519 183.761 275.552 183.748 275.587 183.742C275.621 183.736 275.656 183.737 275.69 183.745L288.177 186.552C288.211 186.559 288.243 186.574 288.272 186.594C288.3 186.614 288.324 186.639 288.343 186.669C288.362 186.698 288.374 186.731 288.38 186.766C288.386 186.8 288.385 186.835 288.377 186.869L288.376 186.874Z" fill="#0C0C0C"/>
</g>
<g opacity="0.2">
<path d="M287.291 192.416C287.274 192.483 287.231 192.542 287.172 192.578C287.112 192.615 287.041 192.626 286.973 192.61L273.037 189.48C273.003 189.473 272.971 189.458 272.942 189.438C272.914 189.418 272.89 189.393 272.871 189.363C272.852 189.334 272.84 189.301 272.834 189.266C272.828 189.232 272.829 189.197 272.837 189.163C272.855 189.095 272.897 189.037 272.956 189C273.015 188.962 273.086 188.949 273.155 188.962L287.091 192.092C287.125 192.1 287.157 192.114 287.185 192.134C287.214 192.154 287.238 192.18 287.257 192.209C287.275 192.239 287.288 192.272 287.294 192.306C287.3 192.341 287.299 192.376 287.291 192.41V192.416Z" fill="#0C0C0C"/>
</g>
<g opacity="0.2">
<path d="M286.151 198.424C286.134 198.491 286.091 198.549 286.033 198.586C285.974 198.622 285.903 198.634 285.835 198.619L274.719 196.122C274.651 196.107 274.591 196.065 274.553 196.006C274.516 195.946 274.503 195.874 274.519 195.806C274.534 195.737 274.576 195.678 274.635 195.64C274.695 195.602 274.767 195.59 274.835 195.605L285.951 198.102C285.985 198.109 286.018 198.124 286.046 198.144C286.075 198.164 286.099 198.189 286.118 198.219C286.137 198.248 286.149 198.281 286.155 198.316C286.161 198.35 286.16 198.385 286.152 198.42L286.151 198.424Z" fill="#0C0C0C"/>
</g>
<path d="M236.912 110.26L244.974 94.0119C245.151 93.6549 245.401 93.3387 245.707 93.0834C246.013 92.8281 246.369 92.6394 246.752 92.5292C247.135 92.419 247.536 92.3898 247.931 92.4434C248.326 92.497 248.706 92.6322 249.045 92.8405C249.661 93.2443 250.105 93.8623 250.291 94.5747C250.477 95.2871 250.391 96.0432 250.052 96.6963L248.322 100.18L258.786 91.7215C259.933 90.7603 261.956 90.315 262.949 91.6728C263.365 92.1704 263.6 92.7943 263.617 93.4428C263.633 94.0913 263.428 94.7262 263.037 95.2437C263.049 95.2523 263.06 95.2621 263.07 95.2729C263.075 95.2822 263.081 95.2919 263.085 95.302L264.854 93.8192C265.182 93.5449 265.567 93.3472 265.981 93.2405C266.395 93.1338 266.827 93.1208 267.247 93.2024C267.666 93.2841 268.062 93.4583 268.406 93.7124C268.75 93.9665 269.032 94.2941 269.233 94.6713C269.538 95.2716 269.627 95.9584 269.486 96.6166C269.345 97.2749 268.982 97.8648 268.459 98.2877L267.706 98.9184C267.714 98.9486 267.717 98.98 267.713 99.0111C268.321 98.7031 269.018 98.6212 269.68 98.78C270.343 98.9388 270.927 99.328 271.328 99.878C271.75 100.493 271.924 101.244 271.816 101.982C271.708 102.72 271.326 103.39 270.746 103.858L268.876 105.424C268.918 105.42 268.96 105.427 268.999 105.443C269.038 105.459 269.073 105.484 269.1 105.516C269.131 105.556 269.149 105.604 269.153 105.654C269.771 105.53 270.411 105.612 270.977 105.888C271.543 106.163 272.003 106.617 272.286 107.18C272.571 107.777 272.646 108.452 272.499 109.097C272.352 109.742 271.992 110.318 271.477 110.733L255.701 123.948C253.494 125.797 250.785 126.944 247.922 127.243C245.058 127.543 242.171 126.98 239.629 125.627C237.438 124.461 235.788 122.486 235.03 120.123C234.271 117.76 234.464 115.194 235.567 112.97L236.912 110.26Z" fill="#E98862"/>
<g opacity="0.2">
<path d="M252.72 103.668C252.765 103.721 252.829 103.755 252.898 103.761C252.968 103.767 253.037 103.746 253.091 103.702L263.033 95.643C263.088 95.5988 263.122 95.5347 263.13 95.4648C263.137 95.3949 263.116 95.325 263.072 95.2705C263.028 95.2159 262.964 95.1811 262.894 95.1738C262.824 95.1665 262.754 95.1873 262.699 95.2315L252.757 103.291C252.703 103.335 252.669 103.398 252.661 103.468C252.654 103.537 252.674 103.607 252.718 103.661L252.72 103.668Z" fill="#0C0C0C"/>
</g>
<g opacity="0.2">
<path d="M256.153 108.151C256.198 108.204 256.262 108.238 256.332 108.244C256.401 108.251 256.47 108.229 256.524 108.185L267.62 99.1912C267.674 99.147 267.708 99.0832 267.715 99.0138C267.723 98.9444 267.702 98.8749 267.658 98.8205C267.613 98.7683 267.549 98.7353 267.481 98.7281C267.412 98.7208 267.343 98.7398 267.288 98.7813L256.188 107.774C256.134 107.818 256.1 107.881 256.092 107.951C256.085 108.02 256.105 108.09 256.149 108.144L256.153 108.151Z" fill="#0C0C0C"/>
</g>
<g opacity="0.2">
<path d="M259.844 113.027C259.889 113.081 259.953 113.114 260.022 113.121C260.092 113.127 260.161 113.106 260.215 113.062L269.065 105.888C269.12 105.843 269.155 105.779 269.162 105.709C269.169 105.64 269.149 105.57 269.104 105.515C269.06 105.461 268.996 105.426 268.926 105.419C268.856 105.411 268.786 105.432 268.732 105.476L259.879 112.65C259.825 112.695 259.79 112.758 259.783 112.828C259.776 112.897 259.796 112.967 259.84 113.021L259.844 113.027Z" fill="#0C0C0C"/>
</g>
<path d="M55.9765 96.3288C55.9765 96.3288 54.8395 113.389 51.0016 119.577C39.9515 137.396 36.7502 157.442 47.8157 167.915C58.8812 178.389 129.461 178.534 134.808 154.446C139.309 134.165 129.649 131.985 127.298 115.257C126.235 107.687 123.309 91.8142 123.309 91.8142" fill="#0A0A0A"/>
<path d="M116.541 150.914C116.419 150.898 115.067 173.331 89.0061 171.376C70.9645 170.024 64.5317 150.881 64.1187 150.881C66.0638 150.467 69.3392 149.866 70.203 149.405C73.0441 147.879 76.5579 146.29 77.4751 140.773C78.0047 137.596 77.107 121.326 77.383 118.107L105.077 124.29C104.69 131.085 101.981 146.837 111.474 149.625C113.053 150.087 114.755 150.511 116.541 150.914Z" fill="#E98862"/>
<path opacity="0.5" d="M105.465 143.188C105.031 141.79 104.752 140.349 104.632 138.89C104.328 135.561 104.388 132.209 104.813 128.894C99.1846 128.134 93.8822 125.81 89.5083 122.188C88.994 124.087 86.1656 132.385 86.9488 134.19C88.4279 137.602 95.3828 143.188 105.465 143.188Z" fill="#0C0C0C"/>
<path d="M101.884 136.2C90.9651 137.259 76.8381 132.889 73.9117 118.348L71.2712 105.228C68.3448 90.6883 73.6093 77.3642 87.2994 74.6088C100.99 71.855 113.595 81.5806 116.521 96.1212L117.691 101.93C118.813 107.509 121.364 134.314 101.884 136.2Z" fill="#E98862"/>
<path opacity="0.1" d="M94.9433 117.146C96.7401 116.931 98.0693 115.689 97.912 114.371C97.7548 113.053 96.1707 112.159 94.3739 112.373C92.5771 112.587 91.248 113.83 91.4052 115.147C91.5624 116.465 93.1465 117.36 94.9433 117.146Z" fill="#0C0C0C"/>
<path opacity="0.1" d="M113.93 111.877C114.089 113.193 115.675 114.086 117.471 113.874C117.782 113.837 118.088 113.768 118.384 113.667C118.468 112.098 118.472 110.589 118.427 109.191C117.928 109.066 117.41 109.036 116.9 109.102C115.103 109.314 113.774 110.555 113.93 111.877Z" fill="#0C0C0C"/>
<path opacity="0.5" d="M105.99 115.944C105.999 115.943 106.008 115.942 106.017 115.94C106.572 115.824 107.12 115.678 107.658 115.502C108.462 115.233 109.512 114.791 109.368 114.064C109.202 113.236 105.131 104.754 104.67 103.791C104.651 103.747 104.623 103.708 104.589 103.675C104.554 103.643 104.514 103.617 104.469 103.601C104.425 103.584 104.377 103.577 104.33 103.579C104.283 103.581 104.236 103.593 104.193 103.613C104.151 103.634 104.113 103.663 104.081 103.698C104.05 103.734 104.026 103.776 104.011 103.821C103.996 103.866 103.991 103.913 103.995 103.96C103.999 104.008 104.012 104.054 104.034 104.096C105.769 107.708 108.565 113.647 108.677 114.205C108.589 114.465 107.255 114.973 105.879 115.25C105.833 115.257 105.79 115.274 105.75 115.298C105.711 115.322 105.677 115.354 105.65 115.392C105.623 115.429 105.603 115.472 105.593 115.517C105.582 115.562 105.58 115.608 105.588 115.654C105.595 115.7 105.611 115.743 105.635 115.783C105.66 115.822 105.692 115.856 105.729 115.883C105.767 115.91 105.809 115.93 105.854 115.94C105.899 115.951 105.946 115.953 105.991 115.945L105.99 115.944Z" fill="#0C0C0C"/>
<path d="M60.3476 109.939L72.6211 107.542C81.8924 103.665 84.5228 87.5066 84.5228 87.5066C84.5228 87.5066 95.9648 98.4037 123.311 91.8142C123.311 91.8142 117.371 53.6391 76.9917 65.2294C63.972 68.9656 54.7494 82.2368 56.121 99.8145C57.0822 112.129 60.3476 109.939 60.3476 109.939Z" fill="#0A0A0A"/>
<path d="M75.6534 122.607C71.4931 123.444 67.2247 119.672 66.3858 115.511C65.547 111.349 68.4597 108.377 72.62 107.539L75.3251 109.896L79.2297 121.886L75.6534 122.607Z" fill="#E98862"/>
<path d="M107.619 97.0263C108.66 96.2902 109.877 95.8429 111.147 95.7299C111.785 95.6687 112.428 95.7044 113.056 95.8358C113.688 95.9647 114.302 96.1725 114.883 96.4543L114.901 96.4628C114.966 96.4912 115.039 96.4933 115.105 96.4687C115.171 96.444 115.224 96.3946 115.254 96.3309C115.284 96.2672 115.288 96.1943 115.265 96.1278C115.242 96.0614 115.194 96.0065 115.131 95.9751C114.515 95.6501 113.861 95.4038 113.184 95.2421C112.502 95.0764 111.799 95.0141 111.099 95.0573C109.681 95.1357 108.309 95.5929 107.127 96.3813C107.083 96.4111 107.045 96.4493 107.016 96.4938C106.987 96.5382 106.967 96.588 106.957 96.6403C106.947 96.6926 106.947 96.7463 106.958 96.7984C106.969 96.8505 106.99 96.9 107.02 96.944C107.05 96.988 107.088 97.0256 107.132 97.0548C107.177 97.0839 107.227 97.104 107.279 97.1139C107.331 97.1237 107.385 97.1232 107.437 97.1122C107.489 97.1013 107.539 97.0802 107.583 97.0501L107.592 97.0438L107.619 97.0263Z" fill="#0C0C0C"/>
<path d="M96.4071 98.5758C95.0133 98.2985 93.5707 98.4004 92.2298 98.8708C91.5669 99.0991 90.9421 99.4256 90.3762 99.8394C89.8126 100.248 89.3026 100.726 88.8585 101.262C88.8136 101.315 88.7911 101.384 88.7958 101.453C88.8004 101.523 88.8317 101.588 88.8832 101.635C88.9347 101.682 89.0024 101.707 89.072 101.705C89.1416 101.703 89.2078 101.674 89.2567 101.625L89.271 101.61C89.6996 101.127 90.1871 100.7 90.7221 100.339C91.2515 99.9776 91.8325 99.6986 92.4453 99.511C93.6617 99.1289 94.9576 99.0759 96.2011 99.3575L96.2318 99.3654C96.3361 99.3907 96.4463 99.3735 96.5379 99.3176C96.6296 99.2617 96.6953 99.1716 96.7206 99.0673C96.7459 98.9629 96.7286 98.8528 96.6727 98.7611C96.6168 98.6695 96.5268 98.6037 96.4224 98.5785L96.4071 98.5758Z" fill="#0C0C0C"/>
<path d="M72.6295 107.339C80.8798 104.268 83.6177 98.5705 84.4608 94.3307C85.0065 91.5031 84.9554 88.5927 84.3109 85.786L84.0557 85.8564C84.6905 88.6265 84.7396 91.4987 84.1997 94.2889C83.3672 98.4593 80.6685 104.065 72.5369 107.092L72.6295 107.339Z" fill="#0C0C0C"/>
<path d="M137.766 153.582L216.105 179.768L193.105 189.992L232.167 109.856L264.091 124.734L227.848 206.183C226.015 210.302 222.762 213.624 218.682 215.541C214.602 217.459 209.968 217.845 205.627 216.628L204.848 216.407L125.323 194.08L137.766 153.582Z" fill="#9FC131"/>
<path d="M88.52 165.767C70.4657 164.916 69.7057 149.593 69.7057 149.593C69.7057 149.593 60.7601 150.171 54.8135 150.975C45.0778 152.292 38.6551 155.594 33.5436 160.705C28.7891 165.46 25.8944 170.604 28.9575 203.447C31.1753 227.228 29.6147 279.536 29.6147 279.536H139.634C139.634 279.536 147.317 203.966 148.228 193.263C149.966 172.827 154.876 168.315 144.927 157.788C137.711 150.154 119.083 149.593 111.586 149.594C111.463 149.594 113.107 166.927 88.52 165.767Z" fill="#9FC131"/>
<path d="M109.65 118.81C106.103 120.614 102.055 121.185 98.1472 120.431C98.012 120.406 97.8722 120.42 97.7444 120.471C97.6166 120.522 97.5059 120.608 97.4254 120.72C97.3448 120.831 97.2976 120.964 97.2894 121.101C97.2811 121.239 97.3122 121.375 97.3788 121.496C98.5439 123.549 101.307 127.056 106.048 125.627C109.109 124.703 110.266 121.554 110.695 119.606C110.724 119.471 110.715 119.331 110.667 119.201C110.619 119.072 110.536 118.959 110.426 118.875C110.316 118.792 110.185 118.741 110.048 118.73C109.91 118.718 109.772 118.746 109.65 118.81Z" fill="white"/>
<path d="M109.872 103.033C110.819 103.033 111.586 102.266 111.586 101.319C111.586 100.372 110.819 99.6048 109.872 99.6048C108.925 99.6048 108.158 100.372 108.158 101.319C108.158 102.266 108.925 103.033 109.872 103.033Z" fill="#0C0C0C"/>
<path d="M93.4002 105.917C94.3469 105.917 95.1144 105.149 95.1144 104.203C95.1144 103.256 94.3469 102.488 93.4002 102.488C92.4534 102.488 91.6859 103.256 91.6859 104.203C91.6859 105.149 92.4534 105.917 93.4002 105.917Z" fill="#0C0C0C"/>
<path d="M147.983 200.708C147.972 200.709 147.961 200.709 147.95 200.708C147.88 200.7 147.817 200.664 147.774 200.608C147.731 200.553 147.711 200.483 147.72 200.413L149.424 186.603C149.427 186.568 149.438 186.535 149.455 186.504C149.472 186.474 149.495 186.447 149.522 186.425C149.55 186.404 149.581 186.388 149.615 186.379C149.649 186.37 149.684 186.368 149.718 186.373C149.753 186.378 149.786 186.389 149.817 186.406C149.847 186.423 149.874 186.446 149.895 186.473C149.916 186.501 149.932 186.532 149.941 186.566C149.951 186.599 149.953 186.634 149.949 186.669L148.245 200.479C148.237 200.542 148.206 200.6 148.157 200.643C148.109 200.685 148.047 200.708 147.983 200.708Z" fill="#0C0C0C"/>
<path d="M426.468 94.1459C426.468 94.1459 419.906 86.7758 420.667 72.9734C421.256 62.2866 429.5 70.9293 429.5 70.9293C429.5 70.9293 429.999 63.2382 435.307 65.0695C440.616 66.9008 442.107 75.3814 442.107 75.3814" fill="#0C0C0C"/>
<path d="M463.351 71.5706C463.351 71.5706 489.859 79.8738 472.751 114.625L470.323 114.307L465.392 113.664" fill="#0C0C0C"/>
<path d="M425.643 150.858C425.765 150.842 427.112 173.201 453.086 171.252C471.068 169.904 477.48 150.827 477.892 150.827C475.953 150.414 472.688 149.815 471.827 149.355C468.995 147.834 465.492 146.251 464.579 140.752C464.053 137.583 464.946 121.37 464.671 118.163L437.069 124.323C437.455 131.096 440.154 146.795 430.693 149.574C429.119 150.034 427.422 150.456 425.643 150.858Z" fill="#E98862"/>
<path opacity="0.52" d="M436.682 143.158C437.114 141.765 437.393 140.328 437.512 138.874C437.816 135.556 437.756 132.215 437.332 128.91C442.942 128.153 448.228 125.837 452.588 122.227C453.1 124.119 455.919 132.39 455.138 134.189C453.663 137.59 446.73 143.158 436.682 143.158Z" fill="#0C0C0C"/>
<path d="M439.992 135.586C450.862 136.757 464.988 132.557 468.063 118.098L470.837 105.05C473.908 90.593 468.808 77.2545 455.193 74.3604C441.579 71.4663 428.911 81.0251 425.837 95.4847L424.609 101.261C424.222 103.251 423.971 105.266 423.858 107.291C423.52 112.639 423.026 120.776 425.494 126.839C427.824 132.562 433.047 134.838 439.992 135.586Z" fill="#E98862"/>
<path d="M431.357 102.275C432.304 102.275 433.072 101.507 433.072 100.561C433.072 99.6139 432.304 98.8464 431.357 98.8464C430.411 98.8464 429.643 99.6139 429.643 100.561C429.643 101.507 430.411 102.275 431.357 102.275Z" fill="#0C0C0C"/>
<path d="M447.639 103.989C448.585 103.989 449.353 103.222 449.353 102.275C449.353 101.328 448.585 100.561 447.639 100.561C446.692 100.561 445.924 101.328 445.924 102.275C445.924 103.222 446.692 103.989 447.639 103.989Z" fill="#0C0C0C"/>
<path d="M466.281 122.323C470.418 123.203 474.713 119.489 475.593 115.352C476.473 111.214 473.603 108.22 469.466 107.34L466.745 109.659L462.724 121.567L466.281 122.323Z" fill="#E98862"/>
<path d="M463.486 114.835C463.486 114.835 466.174 94.0437 460.206 91.5372C456.234 89.868 445.015 93.7413 436.064 90.1121C432.148 88.5234 428.082 88.7617 427.306 90.6062C426.998 91.3365 426.644 79.8902 434.674 72.8575C441.067 67.2577 458.048 68.7019 465.172 72.3761C484.899 82.5487 470.144 108.414 470.144 108.414L467.801 115.299L463.486 114.835Z" fill="#0C0C0C"/>
<g opacity="0.52">
<path d="M435.817 116.323L435.79 116.319C434.456 116.039 432.25 115.418 432.458 114.422C432.632 113.596 436.768 105.145 437.24 104.184C437.28 104.101 437.352 104.038 437.439 104.008C437.526 103.979 437.622 103.985 437.704 104.025C437.787 104.066 437.85 104.137 437.88 104.224C437.91 104.312 437.904 104.407 437.863 104.49C436.028 108.232 433.256 114.003 433.137 114.565C433.219 114.83 434.551 115.349 435.932 115.639C436.018 115.658 436.094 115.71 436.144 115.784C436.194 115.858 436.213 115.948 436.198 116.035C436.184 116.123 436.136 116.202 436.065 116.255C435.994 116.309 435.905 116.333 435.817 116.323Z" fill="#0C0C0C"/>
</g>
<path d="M435.509 95.1982C434.198 94.5368 432.734 94.241 431.269 94.3419C430.549 94.3872 429.84 94.5402 429.166 94.7957C428.499 95.0454 427.866 95.3785 427.282 95.7871C427.185 95.8492 427.115 95.9472 427.089 96.06C427.063 96.1727 427.083 96.2912 427.143 96.3897C427.204 96.4883 427.301 96.559 427.413 96.5867C427.526 96.6143 427.645 96.5966 427.744 96.5375L427.775 96.52C428.31 96.188 428.885 95.9247 429.486 95.7362C430.078 95.5469 430.696 95.4485 431.318 95.4444C432.547 95.4264 433.759 95.7335 434.831 96.3346L434.871 96.3585C434.946 96.4032 435.029 96.4326 435.116 96.4451C435.202 96.4575 435.29 96.4527 435.375 96.431C435.46 96.4092 435.539 96.371 435.609 96.3184C435.679 96.2658 435.737 96.1999 435.782 96.1246C435.826 96.0492 435.855 95.9658 435.866 95.8793C435.878 95.7927 435.873 95.7046 435.851 95.6202C435.828 95.5357 435.79 95.4564 435.736 95.387C435.683 95.3176 435.617 95.2594 435.541 95.2157L435.509 95.1982Z" fill="#0C0C0C"/>
<path d="M445.311 97.8477C446.502 97.5422 447.752 97.5566 448.936 97.8895C449.535 98.0536 450.106 98.3073 450.63 98.642C451.162 98.9789 451.65 99.3811 452.082 99.8394L452.106 99.8632C452.188 99.9424 452.297 99.9869 452.41 99.9876C452.524 99.9883 452.634 99.9451 452.716 99.8669C452.799 99.7888 452.848 99.6818 452.854 99.5682C452.859 99.4546 452.821 99.3433 452.746 99.2574C452.287 98.7127 451.761 98.2282 451.181 97.8153C450.595 97.3954 449.949 97.0655 449.265 96.8367C447.876 96.3622 446.384 96.2707 444.947 96.5719C444.862 96.5904 444.782 96.6255 444.71 96.6752C444.639 96.7248 444.578 96.7881 444.531 96.8613C444.436 97.0092 444.404 97.1887 444.441 97.3604C444.478 97.5321 444.583 97.6819 444.73 97.7769C444.878 97.8718 445.058 97.9041 445.23 97.8667L445.263 97.8582L445.311 97.8477Z" fill="#0C0C0C"/>
<path d="M433.719 119.531C437.58 120.495 441.653 120.146 445.293 118.537C445.419 118.482 445.558 118.464 445.694 118.485C445.83 118.507 445.958 118.566 446.061 118.657C446.165 118.747 446.24 118.866 446.279 118.998C446.318 119.13 446.318 119.27 446.28 119.402C445.603 121.664 443.696 125.704 438.755 125.37C435.565 125.155 433.733 122.344 432.877 120.542C432.818 120.417 432.796 120.277 432.813 120.14C432.83 120.003 432.887 119.873 432.975 119.767C433.064 119.661 433.181 119.582 433.313 119.54C433.444 119.498 433.585 119.495 433.719 119.531Z" fill="white"/>
<path d="M449.04 75.8198C450.885 71.4889 449.996 66.962 447.053 65.7085C444.111 64.4551 440.23 66.9498 438.385 71.2806C436.54 75.6114 437.43 80.1384 440.372 81.3918C443.315 82.6453 447.196 80.1506 449.04 75.8198Z" fill="#0C0C0C"/>
<path d="M453.49 165.767C471.544 164.916 472.304 149.593 472.304 149.593C472.304 149.593 481.25 150.171 487.197 150.975C496.933 152.292 503.355 155.594 508.466 160.705C513.221 165.46 516.115 170.604 513.052 203.447C510.835 227.229 512.396 279.536 512.396 279.536H402.376C402.376 279.536 394.694 203.968 393.783 193.263C392.044 172.827 387.134 168.315 397.083 157.788C404.299 150.154 422.926 149.593 430.425 149.594C430.546 149.594 428.904 166.927 453.49 165.767Z" fill="#9FC131"/>
<path d="M393.523 162.521L365.078 222.825L308.982 180.641L286.702 210.269L360.981 266.126C361.646 266.62 362.34 267.073 363.06 267.482C365.182 268.671 367.518 269.431 369.934 269.717C372.35 270.003 374.798 269.811 377.14 269.151C379.482 268.491 381.67 267.377 383.581 265.871C385.492 264.365 387.087 262.498 388.276 260.375L388.598 259.802L431.995 182.341L393.523 162.521Z" fill="#9FC131"/>
<path d="M516.617 280.066H15.5937C15.4532 280.066 15.3185 280.01 15.2192 279.911C15.1199 279.811 15.0641 279.677 15.0641 279.536C15.0641 279.396 15.1199 279.261 15.2192 279.162C15.3185 279.063 15.4532 279.007 15.5937 279.007H516.617C516.757 279.007 516.892 279.063 516.991 279.162C517.091 279.261 517.147 279.396 517.147 279.536C517.147 279.677 517.091 279.811 516.991 279.911C516.892 280.01 516.757 280.066 516.617 280.066Z" fill="#292A2E"/>
<path d="M407.641 200.767H139.347V292.474H407.641V200.767Z" fill="#FFFFF0"/>
<path d="M407.905 292.739H139.082V200.502H407.905V292.739ZM139.612 292.21H407.375V201.031H139.612V292.21Z" fill="#353935"/>
<path d="M126.099 228.794L142.661 221.397C143.025 221.235 143.419 221.15 143.817 221.148C144.216 221.146 144.61 221.227 144.976 221.386C145.341 221.545 145.67 221.778 145.94 222.071C146.21 222.364 146.417 222.71 146.546 223.087C146.764 223.79 146.712 224.549 146.402 225.216C146.091 225.884 145.544 226.412 144.866 226.699L141.315 228.288L154.772 228.426C156.268 228.415 158.111 229.359 158.013 231.039C158.017 231.688 157.801 232.319 157.401 232.829C157 233.339 156.439 233.699 155.808 233.849C155.811 233.863 155.813 233.878 155.814 233.892C155.812 233.903 155.81 233.914 155.807 233.924L158.115 233.908C158.542 233.905 158.964 233.998 159.351 234.179C159.738 234.36 160.08 234.625 160.351 234.955C160.623 235.284 160.817 235.671 160.921 236.085C161.024 236.499 161.034 236.932 160.949 237.35C160.802 238.007 160.434 238.594 159.906 239.012C159.378 239.43 158.723 239.654 158.049 239.646L157.067 239.653C157.054 239.681 157.037 239.707 157.014 239.73C157.679 239.879 158.269 240.26 158.678 240.804C159.088 241.348 159.29 242.02 159.25 242.7C159.184 243.442 158.841 244.133 158.288 244.634C157.736 245.134 157.014 245.408 156.269 245.4L153.83 245.418C153.864 245.442 153.892 245.473 153.912 245.51C153.932 245.547 153.943 245.588 153.944 245.63C153.942 245.68 153.925 245.728 153.896 245.769C154.451 246.066 154.893 246.538 155.154 247.111C155.415 247.683 155.481 248.326 155.34 248.94C155.18 249.581 154.808 250.15 154.285 250.554C153.761 250.957 153.116 251.172 152.455 251.164L131.876 251.311C128.997 251.332 126.178 250.492 123.779 248.9C121.381 247.308 119.513 245.036 118.414 242.375C117.466 240.08 117.451 237.507 118.37 235.201C119.29 232.896 121.072 231.039 123.339 230.027L126.099 228.794Z" fill="#E98862"/>
<g opacity="0.2">
<path d="M142.487 233.776C142.488 233.845 142.516 233.912 142.565 233.96C142.615 234.009 142.682 234.037 142.751 234.037L155.549 234.152C155.619 234.152 155.687 234.125 155.737 234.076C155.787 234.027 155.816 233.959 155.816 233.889C155.817 233.819 155.79 233.751 155.74 233.701C155.691 233.651 155.624 233.623 155.554 233.622L142.756 233.507C142.686 233.507 142.619 233.535 142.569 233.584C142.519 233.634 142.491 233.701 142.491 233.771L142.487 233.776Z" fill="#0C0C0C"/>
</g>
<g opacity="0.2">
<path d="M142.28 239.42C142.281 239.49 142.309 239.556 142.359 239.605C142.409 239.654 142.475 239.681 142.545 239.681L156.827 239.81C156.897 239.81 156.965 239.782 157.014 239.733C157.064 239.683 157.092 239.616 157.092 239.545C157.089 239.476 157.061 239.41 157.012 239.361C156.963 239.312 156.897 239.283 156.827 239.281L142.545 239.152C142.51 239.152 142.475 239.158 142.443 239.171C142.41 239.184 142.381 239.204 142.356 239.229C142.331 239.253 142.311 239.282 142.298 239.315C142.284 239.347 142.277 239.382 142.277 239.417L142.28 239.42Z" fill="#0C0C0C"/>
</g>
<g opacity="0.2">
<path d="M142.021 245.529C142.022 245.598 142.05 245.665 142.1 245.713C142.15 245.762 142.216 245.79 142.286 245.79L153.679 245.892C153.749 245.893 153.817 245.866 153.867 245.816C153.917 245.767 153.945 245.7 153.946 245.63C153.946 245.56 153.919 245.492 153.87 245.442C153.821 245.392 153.754 245.363 153.683 245.363L142.291 245.26C142.22 245.26 142.153 245.288 142.103 245.338C142.054 245.387 142.026 245.455 142.026 245.525L142.021 245.529Z" fill="#0C0C0C"/>
</g>
<path d="M130.84 258.282L39.0179 279.156C35.9675 279.488 32.8817 279.108 30.0026 278.047C27.1235 276.986 24.5294 275.273 22.4238 273.041C20.3182 270.809 18.7584 268.119 17.8669 265.183C16.9753 262.248 16.7762 259.145 17.2851 256.119L27.793 171.599C28.6669 166.405 31.5683 161.77 35.8589 158.716C40.1496 155.661 45.478 154.436 50.672 155.31C55.866 156.184 60.5001 159.085 63.5549 163.376C66.6097 167.666 67.8349 172.995 66.961 178.189L61.9009 238.685L125.696 224.248L130.84 258.282Z" fill="#9FC131"/>
<path d="M48.9914 241.062C48.9249 241.062 48.861 241.036 48.8125 240.991C48.764 240.945 48.7343 240.883 48.7295 240.817C48.7246 240.75 48.7449 240.685 48.7862 240.633C48.8276 240.581 48.887 240.546 48.9527 240.536L61.7478 237.804C61.7822 237.798 61.8174 237.799 61.8513 237.808C61.8852 237.816 61.9171 237.831 61.9451 237.851C61.9732 237.872 61.9968 237.898 62.0145 237.928C62.0323 237.958 62.0439 237.991 62.0486 238.026C62.0589 238.095 62.0413 238.166 61.9996 238.222C61.9579 238.279 61.8955 238.316 61.8262 238.327L49.0311 241.059C49.0179 241.061 49.0047 241.062 48.9914 241.062Z" fill="#0C0C0C"/>
<path d="M41.7728 279.536C41.7026 279.541 41.6334 279.517 41.5805 279.471C41.5276 279.425 41.4954 279.359 41.4908 279.289C41.4862 279.219 41.5097 279.149 41.5562 279.097C41.6026 279.044 41.6681 279.011 41.7384 279.007L130.263 258.157L125.247 224.635L61.8332 238.324C61.7921 238.329 61.7505 238.325 61.7115 238.311C61.6724 238.298 61.6371 238.275 61.6081 238.246C61.5792 238.216 61.5577 238.18 61.5454 238.14C61.5331 238.1 61.5302 238.058 61.5371 238.018L65.0943 203.452C65.0996 203.418 65.1118 203.384 65.1301 203.355C65.1484 203.325 65.1725 203.299 65.2009 203.279C65.2294 203.259 65.2616 203.245 65.2957 203.237C65.3297 203.229 65.365 203.229 65.3993 203.235C65.4686 203.247 65.5303 203.285 65.5711 203.343C65.6118 203.4 65.6281 203.471 65.6164 203.54L62.1212 237.751L125.371 224.05C125.405 224.041 125.44 224.039 125.475 224.043C125.51 224.048 125.544 224.059 125.575 224.077C125.605 224.095 125.632 224.119 125.653 224.147C125.674 224.175 125.689 224.207 125.698 224.242L130.842 258.279C130.858 258.346 130.848 258.417 130.813 258.476C130.778 258.535 130.721 258.579 130.655 258.597L41.8072 279.534C41.7958 279.536 41.7843 279.536 41.7728 279.536Z" fill="#0C0C0C"/>
<path d="M415.911 244.681L399.349 237.285C398.985 237.122 398.592 237.037 398.193 237.035C397.794 237.033 397.4 237.114 397.034 237.273C396.669 237.432 396.341 237.666 396.07 237.958C395.8 238.251 395.594 238.597 395.464 238.974C395.247 239.677 395.298 240.436 395.609 241.104C395.919 241.771 396.466 242.3 397.145 242.586L400.696 244.175L387.238 244.314C385.742 244.303 383.899 245.247 383.998 246.926C383.993 247.575 384.209 248.206 384.61 248.716C385.01 249.227 385.572 249.586 386.203 249.737C386.199 249.751 386.197 249.765 386.196 249.779C386.198 249.79 386.2 249.801 386.203 249.812L383.896 249.795C383.468 249.793 383.046 249.885 382.659 250.066C382.272 250.247 381.931 250.512 381.659 250.842C381.387 251.172 381.193 251.558 381.089 251.972C380.986 252.387 380.976 252.819 381.061 253.238C381.208 253.895 381.577 254.481 382.104 254.899C382.632 255.317 383.288 255.541 383.961 255.533L384.943 255.54C384.956 255.569 384.974 255.595 384.996 255.617C384.332 255.766 383.742 256.147 383.332 256.691C382.923 257.235 382.72 257.907 382.761 258.587C382.827 259.33 383.17 260.02 383.723 260.521C384.275 261.022 384.997 261.295 385.742 261.288L388.181 261.305C388.147 261.329 388.119 261.36 388.099 261.397C388.079 261.434 388.068 261.475 388.067 261.517C388.069 261.567 388.085 261.615 388.114 261.656C387.559 261.954 387.117 262.425 386.857 262.998C386.596 263.571 386.53 264.214 386.67 264.827C386.83 265.469 387.203 266.037 387.726 266.441C388.25 266.845 388.895 267.06 389.556 267.052L410.135 267.198C413.014 267.219 415.833 266.379 418.232 264.787C420.631 263.194 422.499 260.922 423.597 258.261C424.545 255.966 424.561 253.393 423.641 251.087C422.721 248.781 420.939 246.925 418.672 245.912L415.911 244.681Z" fill="#E98862"/>
<g opacity="0.2">
<path d="M399.523 249.663C399.522 249.733 399.494 249.799 399.445 249.848C399.395 249.897 399.328 249.924 399.259 249.924L386.461 250.039C386.426 250.039 386.392 250.033 386.359 250.02C386.327 250.007 386.298 249.987 386.273 249.963C386.248 249.939 386.228 249.91 386.215 249.878C386.201 249.846 386.194 249.811 386.194 249.777C386.193 249.742 386.2 249.707 386.213 249.675C386.226 249.643 386.245 249.613 386.27 249.589C386.294 249.564 386.323 249.544 386.355 249.53C386.387 249.517 386.421 249.51 386.456 249.509L399.254 249.394C399.324 249.394 399.391 249.422 399.441 249.471C399.491 249.521 399.519 249.588 399.519 249.659L399.523 249.663Z" fill="#0C0C0C"/>
</g>
<g opacity="0.2">
<path d="M399.73 255.308C399.729 255.377 399.701 255.443 399.652 255.492C399.603 255.54 399.537 255.568 399.468 255.569L385.185 255.697C385.115 255.697 385.048 255.67 384.998 255.62C384.948 255.57 384.92 255.503 384.92 255.433C384.923 255.363 384.951 255.297 385 255.248C385.05 255.199 385.116 255.17 385.185 255.168L399.467 255.039C399.537 255.039 399.605 255.067 399.654 255.117C399.704 255.166 399.732 255.234 399.732 255.304L399.73 255.308Z" fill="#0C0C0C"/>
</g>
<g opacity="0.2">
<path d="M399.989 261.416C399.988 261.485 399.96 261.552 399.911 261.601C399.861 261.65 399.794 261.677 399.725 261.677L388.332 261.78C388.297 261.78 388.263 261.773 388.23 261.76C388.198 261.747 388.169 261.728 388.144 261.704C388.119 261.679 388.099 261.65 388.086 261.618C388.072 261.586 388.065 261.552 388.065 261.517C388.064 261.482 388.071 261.448 388.084 261.416C388.097 261.384 388.116 261.354 388.141 261.329C388.165 261.305 388.194 261.285 388.226 261.271C388.258 261.258 388.292 261.25 388.327 261.25L399.72 261.147C399.79 261.147 399.857 261.175 399.907 261.225C399.957 261.275 399.985 261.342 399.985 261.412L399.989 261.416Z" fill="#0C0C0C"/>
</g>
<path d="M416.466 274.17L502.992 279.156C506.042 279.488 509.128 279.108 512.007 278.047C514.886 276.986 517.481 275.273 519.586 273.041C521.692 270.809 523.252 268.119 524.143 265.183C525.035 262.248 525.234 259.145 524.725 256.119L514.219 171.596C513.786 169.024 512.851 166.563 511.467 164.352C510.083 162.142 508.278 160.226 506.153 158.713C504.029 157.2 501.627 156.121 499.085 155.537C496.544 154.952 493.912 154.874 491.34 155.307C488.768 155.74 486.307 156.675 484.096 158.059C481.886 159.443 479.97 161.248 478.457 163.373C476.945 165.497 475.865 167.899 475.281 170.441C474.696 172.982 474.618 175.614 475.051 178.186L480.111 242.389L416.846 240.132L416.466 274.17Z" fill="#9FC131"/>
<path d="M493.019 242.121C493.085 242.121 493.149 242.095 493.198 242.05C493.246 242.005 493.276 241.942 493.281 241.876C493.286 241.81 493.266 241.744 493.224 241.692C493.183 241.64 493.124 241.605 493.058 241.595L480.263 241.511C480.228 241.505 480.193 241.506 480.159 241.515C480.125 241.523 480.093 241.538 480.065 241.558C480.037 241.579 480.013 241.605 479.996 241.635C479.978 241.665 479.966 241.698 479.961 241.733C479.951 241.803 479.969 241.873 480.011 241.93C480.052 241.986 480.115 242.024 480.184 242.034L492.979 242.118C492.992 242.12 493.005 242.121 493.019 242.121Z" fill="#0C0C0C"/>
<path d="M500.238 279.536C500.309 279.541 500.378 279.517 500.431 279.471C500.483 279.424 500.516 279.359 500.52 279.289C500.525 279.218 500.501 279.149 500.454 279.096C500.408 279.043 500.342 279.011 500.272 279.007L417.042 274.046L417.291 240.524L480.176 242.033C480.217 242.038 480.258 242.034 480.298 242.02C480.337 242.007 480.372 241.984 480.401 241.955C480.43 241.925 480.451 241.889 480.464 241.849C480.476 241.81 480.479 241.768 480.472 241.727L476.915 203.454C476.91 203.42 476.898 203.387 476.879 203.357C476.861 203.327 476.837 203.302 476.808 203.281C476.78 203.261 476.748 203.247 476.714 203.239C476.68 203.232 476.644 203.231 476.61 203.237C476.576 203.243 476.543 203.255 476.513 203.274C476.484 203.292 476.458 203.316 476.438 203.344C476.418 203.373 476.403 203.405 476.396 203.439C476.388 203.473 476.387 203.508 476.393 203.542L479.89 241.46L417.17 239.94C417.136 239.931 417.101 239.928 417.066 239.933C417.031 239.937 416.997 239.949 416.967 239.966C416.936 239.984 416.91 240.008 416.888 240.036C416.867 240.065 416.852 240.097 416.843 240.131L416.465 274.169C416.449 274.235 416.459 274.306 416.494 274.365C416.529 274.425 416.586 274.468 416.652 274.486L500.202 279.531C500.214 279.534 500.226 279.535 500.238 279.536Z" fill="#0C0C0C"/>
<path d="M202.954 260.771H195.921L191.977 245.469C191.83 244.925 191.582 243.799 191.23 242.093C190.878 240.386 190.676 239.24 190.622 238.656C190.543 239.373 190.343 240.525 190.024 242.112C189.705 243.7 189.459 244.832 189.287 245.509L185.362 260.771H178.35L170.917 231.644H176.994L180.72 247.543C181.371 250.479 181.842 253.022 182.134 255.174C182.214 254.416 182.397 253.244 182.683 251.657C182.969 250.07 183.238 248.838 183.49 247.961L187.733 231.644H193.571L197.814 247.961C198 248.692 198.232 249.808 198.512 251.308C198.791 252.809 199.003 254.097 199.147 255.174C199.28 254.138 199.492 252.847 199.783 251.299C200.073 249.751 200.338 248.499 200.577 247.544L204.284 231.645H210.361L202.954 260.771Z" fill="#9230C2"/>
<path d="M230.807 260.771H214.031V231.644H230.807V236.705H220.208V243.1H230.071V248.158H220.208V255.67H230.807V260.771Z" fill="#9230C2"/>
<path d="M236.884 260.771V231.644H243.06V255.672H254.874V260.772L236.884 260.771Z" fill="#9230C2"/>
<path d="M272.309 236.364C271.261 236.316 270.219 236.531 269.275 236.989C268.332 237.446 267.518 238.132 266.907 238.984C265.632 240.731 264.994 243.165 264.995 246.286C264.995 252.782 267.432 256.031 272.306 256.031C274.851 255.932 277.362 255.413 279.738 254.495V259.675C277.194 260.7 274.471 261.208 271.729 261.169C267.492 261.169 264.251 259.884 262.006 257.314C259.76 254.744 258.638 251.054 258.639 246.246C258.578 243.501 259.144 240.78 260.293 238.287C261.311 236.1 262.968 234.273 265.044 233.046C267.256 231.794 269.765 231.164 272.306 231.224C275.267 231.255 278.181 231.957 280.832 233.276L278.839 238.297C277.769 237.786 276.671 237.334 275.552 236.941C274.511 236.568 273.415 236.372 272.309 236.364Z" fill="#9230C2"/>
<path d="M312.374 246.167C312.374 250.988 311.178 254.694 308.787 257.284C306.397 259.874 302.97 261.169 298.507 261.169C294.044 261.169 290.618 259.874 288.227 257.284C285.836 254.694 284.64 250.975 284.64 246.127C284.64 241.279 285.839 237.576 288.237 235.02C290.634 232.463 294.071 231.185 298.547 231.184C303.022 231.184 306.446 232.473 308.818 235.05C311.189 237.627 312.374 241.333 312.374 246.167ZM291.116 246.167C291.116 249.421 291.733 251.871 292.969 253.518C294.205 255.165 296.051 255.989 298.507 255.989C303.436 255.989 305.9 252.715 305.899 246.167C305.899 239.605 303.448 236.324 298.547 236.324C296.09 236.324 294.237 237.151 292.986 238.805C291.736 240.459 291.113 242.913 291.116 246.167Z" fill="#9230C2"/>
<path d="M330.743 260.771L323.731 237.919H323.551C323.803 242.567 323.929 245.669 323.93 247.223V260.771H318.41V231.644H326.818L333.712 253.919H333.831L341.144 231.644H349.551V260.771H343.794V246.983C343.794 246.333 343.803 245.583 343.823 244.732C343.842 243.882 343.932 241.624 344.092 237.958H343.913L336.402 260.771H330.743Z" fill="#9230C2"/>
<path d="M373.658 260.771H356.882V231.644H373.657V236.705H363.059V243.1H372.922V248.158H363.059V255.67H373.658V260.771Z" fill="#9230C2"/>
</svg>
